<?xml version="1.0" encoding="utf-8"?>
<!-- Svg Vector Icons : http://www.onlinewebfonts.com/icon -->
<!DOCTYPE svg PUBLIC "-//W3C//DTD SVG 1.1//EN" "http://www.w3.org/Graphics/SVG/1.1/DTD/svg11.dtd">
<svg version="1.1" xmlns="http://www.w3.org/2000/svg" xmlns:xlink="http://www.w3.org/1999/xlink" x="0px" y="0px" viewBox="0 0 1000 1000" enable-background="new 0 0 1000 1000" xml:space="preserve">
<metadata> Svg Vector Icons : http://www.onlinewebfonts.com/icon </metadata>
<g><g transform="translate(0.000000,512.000000) scale(0.100000,-0.100000)"><path d="M1134.8,5015c-130.5-32.6-220.7-120.9-220.7-218.8c0-163.1,23-191.9,545-719.6l500.9-504.7l-57.6-42.2c-30.7-23-143.9-117.1-249.5-207.3C1023.5,2783.2,545.6,2053.9,298,1251.8C75.4,537.9,39-314.1,196.3-1041.5c251.4-1151.4,944.2-2172.4,1897.9-2801.8c664-437.5,1351-669.7,2151.3-731.1c197.7-13.4,238-1.9,295.5,94c36.5,57.6,38.4,99.8,38.4,617.9c0,606.4,0,612.2-111.3,669.7c-28.8,13.4-107.5,32.6-176.6,40.3c-1067,113.2-1972.8,746.5-2452.5,1709.9c-418.4,838.6-429.9,1817.3-28.8,2675.1c143.9,312.8,347.3,594.9,617.9,863.6c207.3,205.3,500.9,441.4,550.8,441.4c9.6,0,228.4-209.2,487.4-466.3c491.3-487.4,523.9-512.4,685.1-512.4c69.1,0,147.8,57.6,193.8,140.1c30.7,55.7,32.6,180.4,38.4,1525.6c3.8,1040.1-1.9,1487.3-17.3,1542.9c-26.9,101.7-138.2,214.9-238,243.7C4042.1,5034.2,1232.6,5038.1,1134.8,5015z"/><path d="M5523.6,4790.5c-94-65.2-99.8-99.8-99.8-694.7c0-522,1.9-558.4,38.4-602.6c49.9-65.2,113.2-86.4,320.5-111.3c679.3-78.7,1306.9-389.6,1809.6-900c238-239.9,399.2-462.5,543.1-746.5c245.6-477.9,347.3-903.9,345.4-1433.5C8479-381.3,8271.7-993.5,7861-1540.4c-145.8-195.8-424.1-470.2-623.7-617.9c-236-176.5-155.4-213-696.6,324.3c-497,493.2-522,514.3-687,514.3c-71,0-149.7-55.6-195.7-140.1c-30.7-55.6-32.6-180.4-38.4-1525.6c-3.9-1040.1,1.9-1487.3,17.3-1542.9c26.9-105.5,138.2-216.8,243.7-243.7c57.6-15.4,499-21.1,1542.9-17.3c1345.2,5.7,1470,7.7,1525.6,38.4c82.5,46.1,140.1,124.7,140.1,193.8c0,163.1-23,191.9-545,719.6l-500.9,504.7l57.6,42.2c134.3,97.9,451,381.9,573.8,514.3c660.2,708.1,1061.3,1550.6,1193.6,2502.4c42.2,309,42.2,880.8,0,1189.8c-138.2,982.6-554.6,1850-1228.2,2560c-168.8,176.6-510.4,460.6-731.1,606.4c-608.3,401.1-1226.3,625.6-1944,710C5656,4828.9,5577.3,4828.9,5523.6,4790.5z"/></g></g>
</svg>
